<svg width="120" height="36" viewBox="0 0 120 36" fill="none" xmlns="http://www.w3.org/2000/svg">
<path d="M20.8 8.81922L23.3461 4.39999C23.704 3.77954 23.8011 3.04242 23.6161 2.35046C23.4311 1.65849 22.979 1.06822 22.3592 0.709217C22.0523 0.531963 21.7135 0.416959 21.3622 0.370786C21.0108 0.324613 20.6538 0.348178 20.3116 0.440131C19.9694 0.532085 19.6486 0.690622 19.3677 0.906671C19.0868 1.12272 18.8513 1.39204 18.6746 1.69922L16.1284 6.11691C10.7015 4.40383 4.62689 6.62075 1.66382 11.7608C0.769018 13.3099 0.219502 15.034 0.0528804 16.8152C-0.113741 18.5964 0.106467 20.3926 0.69843 22.0808L5.40074 13.9223C5.92922 12.9991 6.63558 12.19 7.47892 11.5417C8.32225 10.8933 9.28581 10.4188 10.3138 10.1454C11.3399 9.86708 12.411 9.79538 13.4651 9.93443C14.5191 10.0735 15.535 10.4205 16.4538 10.9554C20.3177 13.19 21.6461 18.1569 19.4154 22.0261C17.1846 25.8969 12.2261 27.2277 8.36305 24.9931L11.06 20.3138C11.3667 20.4912 11.7054 20.6064 12.0567 20.6528C12.4081 20.6991 12.7651 20.6757 13.1073 20.5839C13.4496 20.4921 13.7703 20.3336 14.0513 20.1177C14.3322 19.9017 14.5678 19.6325 14.7446 19.3254C15.102 18.7048 15.1987 17.9679 15.0135 17.2762C14.8284 16.5845 14.3765 15.9944 13.7569 15.6354C13.4501 15.4581 13.1114 15.343 12.7601 15.2967C12.4088 15.2504 12.0519 15.2738 11.7096 15.3656C11.3674 15.4574 11.0466 15.6158 10.7657 15.8317C10.4847 16.0476 10.2491 16.3168 10.0723 16.6238L1.4692 31.5492C1.11153 32.1696 1.01458 32.9065 1.1996 33.5983C1.38462 34.2901 1.83651 34.8802 2.45612 35.2392C2.76288 35.4167 3.10165 35.5319 3.45301 35.5783C3.80438 35.6246 4.16143 35.6011 4.50372 35.5092C4.846 35.4174 5.16679 35.2588 5.4477 35.0427C5.72861 34.8266 5.96412 34.5572 6.14074 34.25L8.68766 29.8323C14.1138 31.5454 20.1892 29.3284 23.1523 24.1877C26.1154 19.0477 24.9946 12.6692 20.7992 8.81845M36.3284 17.8692C37.5338 17.8692 38.3015 17.3269 38.3015 16.0146C38.3015 14.6854 37.4984 14.1792 36.3284 14.1792H34.6684V17.8684L36.3284 17.8692ZM32.2238 12.0261H36.3977C38.8254 12.0261 40.8169 13.2331 40.8169 16.0146C40.8169 18.7961 38.8084 20.0223 36.3977 20.0223H34.6692V23.9231H32.223L32.2238 12.0261ZM44.4084 12.0261H52.2677V14.1792H46.853V16.9069H51.6223V19.0061H46.853V21.7715H52.513V23.9231H44.4077L44.4084 12.0261ZM56.6277 12.0261H59.073V21.7715H64.453V23.9231H56.6277V12.0261ZM76.9638 17.9738C76.9638 15.7531 75.4969 14.0554 73.3315 14.0554C71.1646 14.0554 69.6984 15.7531 69.6984 17.9738C69.6984 20.1969 71.1646 21.8938 73.3315 21.8938C75.4969 21.8938 76.9638 20.1961 76.9638 17.9738ZM67.183 17.9738C67.183 14.4584 69.9077 11.8684 73.3315 11.8684C76.7546 11.8684 79.4777 14.4584 79.4777 17.9738C79.4777 21.4908 76.7546 24.0815 73.3315 24.0815C69.9084 24.0815 67.183 21.4908 67.183 17.9738ZM85.5015 14.1792H82.1138V12.0254H91.3354V14.1792H87.9477V23.9231H85.5015V14.1792ZM103.735 17.9738C103.735 15.7531 102.268 14.0554 100.103 14.0554C97.9361 14.0554 96.4692 15.7531 96.4692 17.9738C96.4692 20.1969 97.9361 21.8938 100.103 21.8938C102.268 21.8938 103.735 20.1961 103.735 17.9738ZM93.9538 17.9738C93.9538 14.4584 96.6792 11.8684 100.103 11.8684C103.526 11.8684 106.251 14.4584 106.251 17.9738C106.251 21.4908 103.526 24.0815 100.103 24.0815C96.6792 24.0815 93.9538 21.4908 93.9538 17.9738ZM113.72 18.3938C113.127 17.8346 112.305 16.7669 112.305 16.7669C112.305 16.7669 112.481 18.0792 112.481 18.9361V23.9238H110.192V11.9208H110.436L116.427 17.5554C117.004 18.0969 117.824 19.1808 117.824 19.1808C117.824 19.1808 117.668 17.8346 117.668 17.0131V12.0261H119.955V24.0277H119.712L113.72 18.3938Z" fill="white"/>
</svg>
